<mxfile host="65bd71144e">
    <diagram id="R3N_D--5qBi451Lv7yX1" name="Page-1">
        <mxGraphModel dx="651" dy="1590" grid="1" gridSize="10" guides="1" tooltips="1" connect="1" arrows="1" fold="1" page="1" pageScale="1" pageWidth="850" pageHeight="1100" math="0" shadow="0">
            <root>
                <mxCell id="0"/>
                <mxCell id="1" parent="0"/>
                <mxCell id="2" value="Entity relationship diagram" style="swimlane;whiteSpace=wrap;html=1;startSize=20;" parent="1" vertex="1">
                    <mxGeometry x="590" y="-500" width="1010" height="560" as="geometry"/>
                </mxCell>
                <mxCell id="5" style="edgeStyle=none;html=1;entryX=0.5;entryY=1;entryDx=0;entryDy=0;endArrow=none;endFill=0;" parent="2" edge="1">
                    <mxGeometry relative="1" as="geometry">
                        <mxPoint x="140" y="70" as="targetPoint"/>
                    </mxGeometry>
                </mxCell>
                <mxCell id="7" style="edgeStyle=none;html=1;entryX=0.5;entryY=1;entryDx=0;entryDy=0;endArrow=none;endFill=0;" parent="2" edge="1">
                    <mxGeometry relative="1" as="geometry">
                        <mxPoint x="260" y="70" as="targetPoint"/>
                    </mxGeometry>
                </mxCell>
                <mxCell id="18" style="edgeStyle=none;html=1;entryX=0.5;entryY=0;entryDx=0;entryDy=0;" parent="2" edge="1">
                    <mxGeometry relative="1" as="geometry">
                        <mxPoint x="81.43046618229482" y="268.5695338177052" as="sourcePoint"/>
                    </mxGeometry>
                </mxCell>
                <mxCell id="19" style="edgeStyle=none;html=1;entryX=0.5;entryY=0;entryDx=0;entryDy=0;" parent="2" edge="1">
                    <mxGeometry relative="1" as="geometry">
                        <mxPoint x="128.67311721816714" y="266.38463841038117" as="sourcePoint"/>
                    </mxGeometry>
                </mxCell>
                <mxCell id="214" style="edgeStyle=none;html=1;entryX=0.5;entryY=1;entryDx=0;entryDy=0;endArrow=none;endFill=0;" parent="2" source="223" target="226" edge="1">
                    <mxGeometry relative="1" as="geometry"/>
                </mxCell>
                <mxCell id="215" style="edgeStyle=none;html=1;entryX=1;entryY=0.5;entryDx=0;entryDy=0;endArrow=none;endFill=0;" parent="2" edge="1">
                    <mxGeometry relative="1" as="geometry">
                        <mxPoint x="447.5" y="360.4090909090909" as="sourcePoint"/>
                        <mxPoint x="380" y="342" as="targetPoint"/>
                    </mxGeometry>
                </mxCell>
                <mxCell id="216" style="edgeStyle=none;html=1;entryX=0.5;entryY=0;entryDx=0;entryDy=0;endArrow=none;endFill=0;" parent="2" source="223" target="242" edge="1">
                    <mxGeometry relative="1" as="geometry"/>
                </mxCell>
                <mxCell id="217" style="edgeStyle=none;html=1;entryX=0;entryY=0.5;entryDx=0;entryDy=0;endArrow=none;endFill=0;" parent="2" source="223" target="243" edge="1">
                    <mxGeometry relative="1" as="geometry"/>
                </mxCell>
                <mxCell id="218" style="edgeStyle=none;html=1;entryX=0.5;entryY=0;entryDx=0;entryDy=0;endArrow=none;endFill=0;" parent="2" source="223" target="244" edge="1">
                    <mxGeometry relative="1" as="geometry"/>
                </mxCell>
                <mxCell id="219" style="edgeStyle=none;html=1;entryX=0.5;entryY=0;entryDx=0;entryDy=0;endArrow=none;endFill=0;" parent="2" source="223" target="247" edge="1">
                    <mxGeometry relative="1" as="geometry"/>
                </mxCell>
                <mxCell id="220" style="edgeStyle=none;html=1;exitX=1;exitY=0;exitDx=0;exitDy=0;endArrow=none;endFill=0;" parent="2" source="223" target="263" edge="1">
                    <mxGeometry relative="1" as="geometry"/>
                </mxCell>
                <mxCell id="221" style="edgeStyle=none;html=1;entryX=0.5;entryY=1;entryDx=0;entryDy=0;endArrow=none;endFill=0;shape=link;" parent="2" source="223" target="265" edge="1">
                    <mxGeometry relative="1" as="geometry"/>
                </mxCell>
                <mxCell id="222" style="edgeStyle=none;html=1;entryX=0.5;entryY=0;entryDx=0;entryDy=0;endArrow=none;endFill=0;" parent="2" source="223" target="269" edge="1">
                    <mxGeometry relative="1" as="geometry"/>
                </mxCell>
                <mxCell id="223" value="employee" style="html=1;dashed=0;whiteSpace=wrap;" parent="2" vertex="1">
                    <mxGeometry x="447.5" y="350" width="85" height="40" as="geometry"/>
                </mxCell>
                <mxCell id="224" style="edgeStyle=none;html=1;entryX=0.5;entryY=1;entryDx=0;entryDy=0;shape=link;" parent="2" source="226" target="230" edge="1">
                    <mxGeometry relative="1" as="geometry">
                        <mxPoint x="490" y="190" as="targetPoint"/>
                    </mxGeometry>
                </mxCell>
                <mxCell id="225" style="edgeStyle=none;html=1;entryX=0;entryY=1;entryDx=0;entryDy=0;endArrow=none;endFill=0;" parent="2" source="226" target="270" edge="1">
                    <mxGeometry relative="1" as="geometry"/>
                </mxCell>
                <mxCell id="226" value="manage" style="shape=rhombus;html=1;dashed=0;whiteSpace=wrap;perimeter=rhombusPerimeter;" parent="2" vertex="1">
                    <mxGeometry x="460" y="215" width="60" height="50" as="geometry"/>
                </mxCell>
                <mxCell id="227" style="edgeStyle=none;html=1;entryX=0.5;entryY=1;entryDx=0;entryDy=0;endArrow=none;endFill=0;" parent="2" source="230" target="250" edge="1">
                    <mxGeometry relative="1" as="geometry"/>
                </mxCell>
                <mxCell id="228" style="edgeStyle=none;html=1;endArrow=none;endFill=0;" parent="2" source="230" target="251" edge="1">
                    <mxGeometry relative="1" as="geometry"/>
                </mxCell>
                <mxCell id="229" style="edgeStyle=none;html=1;entryX=0.5;entryY=1;entryDx=0;entryDy=0;endArrow=none;endFill=0;" parent="2" source="230" target="252" edge="1">
                    <mxGeometry relative="1" as="geometry"/>
                </mxCell>
                <mxCell id="230" value="department" style="html=1;dashed=0;whiteSpace=wrap;" parent="2" vertex="1">
                    <mxGeometry x="442.5" y="90" width="90" height="35" as="geometry"/>
                </mxCell>
                <mxCell id="231" style="edgeStyle=none;html=1;entryX=0;entryY=0.5;entryDx=0;entryDy=0;endArrow=none;endFill=0;" parent="2" source="235" target="253" edge="1">
                    <mxGeometry relative="1" as="geometry"/>
                </mxCell>
                <mxCell id="232" style="edgeStyle=none;html=1;entryX=0;entryY=0.5;entryDx=0;entryDy=0;endArrow=none;endFill=0;" parent="2" source="235" target="254" edge="1">
                    <mxGeometry relative="1" as="geometry"/>
                </mxCell>
                <mxCell id="233" style="edgeStyle=none;html=1;entryX=0;entryY=0.5;entryDx=0;entryDy=0;endArrow=none;endFill=0;" parent="2" source="235" target="255" edge="1">
                    <mxGeometry relative="1" as="geometry"/>
                </mxCell>
                <mxCell id="234" style="edgeStyle=none;html=1;entryX=1;entryY=0.5;entryDx=0;entryDy=0;endArrow=none;endFill=0;shape=link;" parent="2" source="235" target="267" edge="1">
                    <mxGeometry relative="1" as="geometry"/>
                </mxCell>
                <mxCell id="235" value="project" style="html=1;dashed=0;whiteSpace=wrap;" parent="2" vertex="1">
                    <mxGeometry x="700" y="230" width="90" height="35" as="geometry"/>
                </mxCell>
                <mxCell id="236" style="edgeStyle=none;html=1;entryX=1;entryY=0.5;entryDx=0;entryDy=0;endArrow=none;endFill=0;" parent="2" source="239" target="258" edge="1">
                    <mxGeometry relative="1" as="geometry"/>
                </mxCell>
                <mxCell id="237" style="edgeStyle=none;html=1;entryX=1;entryY=0.5;entryDx=0;entryDy=0;endArrow=none;endFill=0;" parent="2" source="239" target="260" edge="1">
                    <mxGeometry relative="1" as="geometry"/>
                </mxCell>
                <mxCell id="238" style="edgeStyle=none;html=1;entryX=1;entryY=0.5;entryDx=0;entryDy=0;endArrow=none;endFill=0;" parent="2" source="239" target="259" edge="1">
                    <mxGeometry relative="1" as="geometry"/>
                </mxCell>
                <mxCell id="239" value="dependent" style="shape=ext;margin=3;double=1;whiteSpace=wrap;html=1;align=center;" parent="2" vertex="1">
                    <mxGeometry x="130" y="340" width="100" height="40" as="geometry"/>
                </mxCell>
                <mxCell id="240" style="edgeStyle=none;html=1;shape=link;exitX=0;exitY=0.5;exitDx=0;exitDy=0;" parent="2" source="241" target="239" edge="1">
                    <mxGeometry relative="1" as="geometry">
                        <mxPoint x="320" y="370" as="sourcePoint"/>
                    </mxGeometry>
                </mxCell>
                <mxCell id="241" value="has" style="shape=rhombus;double=1;perimeter=rhombusPerimeter;whiteSpace=wrap;html=1;align=center;" parent="2" vertex="1">
                    <mxGeometry x="300" y="320" width="80" height="40" as="geometry"/>
                </mxCell>
                <mxCell id="242" value="&lt;u&gt;ssn&lt;/u&gt;" style="ellipse;whiteSpace=wrap;html=1;align=center;" parent="2" vertex="1">
                    <mxGeometry x="360" y="440" width="100" height="40" as="geometry"/>
                </mxCell>
                <mxCell id="243" value="birth-date" style="ellipse;whiteSpace=wrap;html=1;align=center;" parent="2" vertex="1">
                    <mxGeometry x="600" y="350" width="100" height="40" as="geometry"/>
                </mxCell>
                <mxCell id="244" value="gender" style="ellipse;whiteSpace=wrap;html=1;align=center;" parent="2" vertex="1">
                    <mxGeometry x="580" y="400" width="100" height="40" as="geometry"/>
                </mxCell>
                <mxCell id="245" style="edgeStyle=none;html=1;entryX=0.5;entryY=0;entryDx=0;entryDy=0;endArrow=none;endFill=0;" parent="2" source="247" target="248" edge="1">
                    <mxGeometry relative="1" as="geometry"/>
                </mxCell>
                <mxCell id="246" style="edgeStyle=none;html=1;entryX=0.5;entryY=0;entryDx=0;entryDy=0;endArrow=none;endFill=0;" parent="2" source="247" target="249" edge="1">
                    <mxGeometry relative="1" as="geometry"/>
                </mxCell>
                <mxCell id="247" value="name" style="ellipse;whiteSpace=wrap;html=1;align=center;" parent="2" vertex="1">
                    <mxGeometry x="460" y="410" width="100" height="40" as="geometry"/>
                </mxCell>
                <mxCell id="248" value="first-name" style="ellipse;whiteSpace=wrap;html=1;align=center;" parent="2" vertex="1">
                    <mxGeometry x="445" y="470" width="100" height="40" as="geometry"/>
                </mxCell>
                <mxCell id="249" value="last-name" style="ellipse;whiteSpace=wrap;html=1;align=center;" parent="2" vertex="1">
                    <mxGeometry x="560" y="470" width="100" height="40" as="geometry"/>
                </mxCell>
                <mxCell id="250" value="name" style="ellipse;whiteSpace=wrap;html=1;align=center;" parent="2" vertex="1">
                    <mxGeometry x="310" y="40" width="100" height="40" as="geometry"/>
                </mxCell>
                <mxCell id="251" value="&lt;u&gt;number&lt;/u&gt;" style="ellipse;whiteSpace=wrap;html=1;align=center;" parent="2" vertex="1">
                    <mxGeometry x="435" y="40" width="100" height="40" as="geometry"/>
                </mxCell>
                <mxCell id="252" value="location" style="ellipse;shape=doubleEllipse;margin=3;whiteSpace=wrap;html=1;align=center;" parent="2" vertex="1">
                    <mxGeometry x="570" y="50" width="100" height="40" as="geometry"/>
                </mxCell>
                <mxCell id="253" value="name" style="ellipse;whiteSpace=wrap;html=1;align=center;" parent="2" vertex="1">
                    <mxGeometry x="840" y="150" width="100" height="40" as="geometry"/>
                </mxCell>
                <mxCell id="254" value="&lt;u&gt;number&lt;/u&gt;" style="ellipse;whiteSpace=wrap;html=1;align=center;" parent="2" vertex="1">
                    <mxGeometry x="840" y="240" width="100" height="40" as="geometry"/>
                </mxCell>
                <mxCell id="255" value="location" style="ellipse;whiteSpace=wrap;html=1;align=center;" parent="2" vertex="1">
                    <mxGeometry x="840" y="340" width="100" height="40" as="geometry"/>
                </mxCell>
                <mxCell id="256" value="city" style="ellipse;whiteSpace=wrap;html=1;align=center;" parent="2" vertex="1">
                    <mxGeometry x="910" y="290" width="100" height="40" as="geometry"/>
                </mxCell>
                <mxCell id="257" style="edgeStyle=none;html=1;entryX=0.032;entryY=0.7;entryDx=0;entryDy=0;entryPerimeter=0;endArrow=none;endFill=0;exitX=1;exitY=1;exitDx=0;exitDy=0;" parent="2" source="235" target="256" edge="1">
                    <mxGeometry relative="1" as="geometry"/>
                </mxCell>
                <mxCell id="258" value="&lt;u&gt;name&lt;/u&gt;" style="ellipse;whiteSpace=wrap;html=1;align=center;" parent="2" vertex="1">
                    <mxGeometry y="360" width="100" height="40" as="geometry"/>
                </mxCell>
                <mxCell id="259" value="birth-date" style="ellipse;whiteSpace=wrap;html=1;align=center;" parent="2" vertex="1">
                    <mxGeometry y="290" width="100" height="40" as="geometry"/>
                </mxCell>
                <mxCell id="260" value="gender" style="ellipse;whiteSpace=wrap;html=1;align=center;" parent="2" vertex="1">
                    <mxGeometry y="430" width="100" height="40" as="geometry"/>
                </mxCell>
                <mxCell id="261" style="edgeStyle=none;html=1;entryX=0;entryY=0.5;entryDx=0;entryDy=0;endArrow=none;endFill=0;shape=link;" parent="2" source="263" target="235" edge="1">
                    <mxGeometry relative="1" as="geometry"/>
                </mxCell>
                <mxCell id="262" style="edgeStyle=none;html=1;exitX=1;exitY=1;exitDx=0;exitDy=0;entryX=0;entryY=0;entryDx=0;entryDy=0;endArrow=none;endFill=0;" parent="2" source="263" target="271" edge="1">
                    <mxGeometry relative="1" as="geometry"/>
                </mxCell>
                <mxCell id="263" value="work" style="shape=rhombus;html=1;dashed=0;whiteSpace=wrap;perimeter=rhombusPerimeter;" parent="2" vertex="1">
                    <mxGeometry x="610" y="260" width="60" height="50" as="geometry"/>
                </mxCell>
                <mxCell id="264" style="edgeStyle=none;html=1;entryX=0;entryY=0.75;entryDx=0;entryDy=0;endArrow=none;endFill=0;" parent="2" source="265" target="230" edge="1">
                    <mxGeometry relative="1" as="geometry"/>
                </mxCell>
                <mxCell id="265" value="work" style="shape=rhombus;html=1;dashed=0;whiteSpace=wrap;perimeter=rhombusPerimeter;" parent="2" vertex="1">
                    <mxGeometry x="375" y="222.5" width="60" height="50" as="geometry"/>
                </mxCell>
                <mxCell id="266" style="edgeStyle=none;html=1;entryX=1;entryY=0.5;entryDx=0;entryDy=0;endArrow=none;endFill=0;" parent="2" source="267" target="230" edge="1">
                    <mxGeometry relative="1" as="geometry"/>
                </mxCell>
                <mxCell id="267" value="assigned" style="shape=rhombus;html=1;dashed=0;whiteSpace=wrap;perimeter=rhombusPerimeter;" parent="2" vertex="1">
                    <mxGeometry x="650" y="110" width="60" height="50" as="geometry"/>
                </mxCell>
                <mxCell id="268" style="edgeStyle=none;html=1;entryX=0;entryY=1;entryDx=0;entryDy=0;endArrow=none;endFill=0;shape=link;" parent="2" source="269" target="223" edge="1">
                    <mxGeometry relative="1" as="geometry"/>
                </mxCell>
                <mxCell id="269" value="supervise&amp;nbsp;" style="shape=rhombus;html=1;dashed=0;whiteSpace=wrap;perimeter=rhombusPerimeter;" parent="2" vertex="1">
                    <mxGeometry x="280" y="380" width="70" height="50" as="geometry"/>
                </mxCell>
                <mxCell id="270" value="hiring-date" style="ellipse;whiteSpace=wrap;html=1;align=center;" parent="2" vertex="1">
                    <mxGeometry x="560" y="160" width="100" height="40" as="geometry"/>
                </mxCell>
                <mxCell id="271" value="working-hours" style="ellipse;whiteSpace=wrap;html=1;align=center;" parent="2" vertex="1">
                    <mxGeometry x="720" y="340" width="100" height="40" as="geometry"/>
                </mxCell>
                <mxCell id="272" value="many" style="text;html=1;align=center;verticalAlign=middle;resizable=0;points=[];autosize=1;strokeColor=none;fillColor=none;rotation=-30;" parent="2" vertex="1">
                    <mxGeometry x="515" y="318" width="50" height="30" as="geometry"/>
                </mxCell>
                <mxCell id="273" value="many" style="text;html=1;align=center;verticalAlign=middle;resizable=0;points=[];autosize=1;strokeColor=none;fillColor=none;rotation=-30;" parent="2" vertex="1">
                    <mxGeometry x="656" y="228" width="50" height="30" as="geometry"/>
                </mxCell>
                <mxCell id="274" value="1" style="text;html=1;align=center;verticalAlign=middle;resizable=0;points=[];autosize=1;strokeColor=none;fillColor=none;rotation=15;" parent="2" vertex="1">
                    <mxGeometry x="419" y="330" width="30" height="30" as="geometry"/>
                </mxCell>
                <mxCell id="275" value="many" style="text;html=1;align=center;verticalAlign=middle;resizable=0;points=[];autosize=1;strokeColor=none;fillColor=none;rotation=-15;" parent="2" vertex="1">
                    <mxGeometry x="230" y="318" width="50" height="30" as="geometry"/>
                </mxCell>
                <mxCell id="276" value="1" style="text;html=1;align=center;verticalAlign=middle;resizable=0;points=[];autosize=1;strokeColor=none;fillColor=none;" parent="2" vertex="1">
                    <mxGeometry x="481" y="322" width="30" height="30" as="geometry"/>
                </mxCell>
                <mxCell id="277" value="1" style="text;html=1;align=center;verticalAlign=middle;resizable=0;points=[];autosize=1;strokeColor=none;fillColor=none;" parent="2" vertex="1">
                    <mxGeometry x="480" y="120" width="30" height="30" as="geometry"/>
                </mxCell>
                <mxCell id="278" value="1" style="text;html=1;align=center;verticalAlign=middle;resizable=0;points=[];autosize=1;strokeColor=none;fillColor=none;" parent="2" vertex="1">
                    <mxGeometry x="430" y="120" width="30" height="30" as="geometry"/>
                </mxCell>
                <mxCell id="279" value="many" style="text;html=1;align=center;verticalAlign=middle;resizable=0;points=[];autosize=1;strokeColor=none;fillColor=none;rotation=45;" parent="2" vertex="1">
                    <mxGeometry x="442.5" y="310" width="50" height="30" as="geometry"/>
                </mxCell>
                <mxCell id="280" value="1" style="text;html=1;align=center;verticalAlign=middle;resizable=0;points=[];autosize=1;strokeColor=none;fillColor=none;" parent="2" vertex="1">
                    <mxGeometry x="525" y="105" width="30" height="30" as="geometry"/>
                </mxCell>
                <mxCell id="281" value="many" style="text;html=1;align=center;verticalAlign=middle;resizable=0;points=[];autosize=1;strokeColor=none;fillColor=none;rotation=75;" parent="2" vertex="1">
                    <mxGeometry x="720" y="185" width="50" height="30" as="geometry"/>
                </mxCell>
                <mxCell id="282" value="1" style="text;html=1;align=center;verticalAlign=middle;resizable=0;points=[];autosize=1;strokeColor=none;fillColor=none;" parent="2" vertex="1">
                    <mxGeometry x="369" y="356" width="30" height="30" as="geometry"/>
                </mxCell>
                <mxCell id="283" value="many" style="text;html=1;align=center;verticalAlign=middle;resizable=0;points=[];autosize=1;strokeColor=none;fillColor=none;rotation=0;" parent="2" vertex="1">
                    <mxGeometry x="369" y="374" width="50" height="30" as="geometry"/>
                </mxCell>
                <mxCell id="22" value="DB Mapping" style="swimlane;whiteSpace=wrap;html=1;startSize=20;" parent="1" vertex="1">
                    <mxGeometry x="352" y="70" width="1468" height="530" as="geometry"/>
                </mxCell>
                <mxCell id="28" style="edgeStyle=none;html=1;entryX=1;entryY=0.5;entryDx=0;entryDy=0;" parent="22" edge="1">
                    <mxGeometry relative="1" as="geometry">
                        <mxPoint x="100" y="200" as="targetPoint"/>
                    </mxGeometry>
                </mxCell>
                <mxCell id="34" style="edgeStyle=none;html=1;entryX=0.5;entryY=0;entryDx=0;entryDy=0;" parent="22" edge="1">
                    <mxGeometry relative="1" as="geometry">
                        <mxPoint x="60" y="290" as="targetPoint"/>
                    </mxGeometry>
                </mxCell>
                <mxCell id="35" style="edgeStyle=none;html=1;entryX=0.5;entryY=0;entryDx=0;entryDy=0;" parent="22" edge="1">
                    <mxGeometry relative="1" as="geometry">
                        <mxPoint x="170" y="290" as="targetPoint"/>
                    </mxGeometry>
                </mxCell>
                <mxCell id="38" style="edgeStyle=none;html=1;entryX=0.764;entryY=0.12;entryDx=0;entryDy=0;entryPerimeter=0;" parent="22" edge="1">
                    <mxGeometry relative="1" as="geometry">
                        <mxPoint x="126.40000000000009" y="234.79999999999995" as="targetPoint"/>
                    </mxGeometry>
                </mxCell>
                <mxCell id="53" value="Mapping" style="swimlane;whiteSpace=wrap;html=1;" parent="22" vertex="1">
                    <mxGeometry x="28" y="30" width="1412" height="400" as="geometry"/>
                </mxCell>
                <mxCell id="142" style="edgeStyle=orthogonalEdgeStyle;html=1;entryX=0.5;entryY=1;entryDx=0;entryDy=0;" parent="53" edge="1">
                    <mxGeometry relative="1" as="geometry">
                        <Array as="points">
                            <mxPoint x="288" y="200"/>
                            <mxPoint x="70" y="200"/>
                        </Array>
                        <mxPoint x="288" y="145" as="sourcePoint"/>
                    </mxGeometry>
                </mxCell>
                <mxCell id="143" style="edgeStyle=orthogonalEdgeStyle;html=1;entryX=0.25;entryY=1;entryDx=0;entryDy=0;" parent="53" edge="1">
                    <mxGeometry relative="1" as="geometry">
                        <Array as="points">
                            <mxPoint x="390" y="80"/>
                            <mxPoint x="228" y="80"/>
                            <mxPoint x="228" y="110"/>
                            <mxPoint x="70" y="110"/>
                        </Array>
                        <mxPoint x="70" y="100" as="targetPoint"/>
                    </mxGeometry>
                </mxCell>
                <mxCell id="284" value="project" style="swimlane;whiteSpace=wrap;html=1;" parent="53" vertex="1">
                    <mxGeometry y="20" width="530" height="60" as="geometry"/>
                </mxCell>
                <mxCell id="285" value="name" style="rounded=0;whiteSpace=wrap;html=1;fillColor=#6a00ff;fontColor=#ffffff;strokeColor=#3700CC;" parent="284" vertex="1">
                    <mxGeometry x="100" y="25" width="100" height="30" as="geometry"/>
                </mxCell>
                <mxCell id="286" value="number" style="rounded=0;whiteSpace=wrap;html=1;fillColor=#6a00ff;fontColor=#ffffff;strokeColor=#3700CC;fontStyle=4" parent="284" vertex="1">
                    <mxGeometry y="25" width="100" height="30" as="geometry"/>
                </mxCell>
                <mxCell id="287" value="city" style="rounded=0;whiteSpace=wrap;html=1;fillColor=#6a00ff;fontColor=#ffffff;strokeColor=#3700CC;" parent="284" vertex="1">
                    <mxGeometry x="200" y="25" width="100" height="30" as="geometry"/>
                </mxCell>
                <mxCell id="292" value="location" style="rounded=0;whiteSpace=wrap;html=1;fillColor=#6a00ff;fontColor=#ffffff;strokeColor=#3700CC;" parent="284" vertex="1">
                    <mxGeometry x="300" y="25" width="100" height="30" as="geometry"/>
                </mxCell>
                <mxCell id="323" value="department-number" style="rounded=0;whiteSpace=wrap;html=1;fillColor=#6a00ff;fontColor=#ffffff;strokeColor=#3700CC;fontStyle=0" parent="284" vertex="1">
                    <mxGeometry x="400" y="25" width="130" height="30" as="geometry"/>
                </mxCell>
                <mxCell id="336" value="" style="endArrow=none;dashed=1;html=1;entryX=1;entryY=0.75;entryDx=0;entryDy=0;exitX=0;exitY=0.75;exitDx=0;exitDy=0;" edge="1" parent="284" source="323" target="323">
                    <mxGeometry width="50" height="50" relative="1" as="geometry">
                        <mxPoint x="420" y="80" as="sourcePoint"/>
                        <mxPoint x="470" y="30" as="targetPoint"/>
                    </mxGeometry>
                </mxCell>
                <mxCell id="293" value="employee" style="swimlane;whiteSpace=wrap;html=1;startSize=23;" parent="53" vertex="1">
                    <mxGeometry y="150" width="730" height="60" as="geometry"/>
                </mxCell>
                <mxCell id="294" value="first-name" style="rounded=0;whiteSpace=wrap;html=1;fillColor=#6a00ff;fontColor=#ffffff;strokeColor=#3700CC;" parent="293" vertex="1">
                    <mxGeometry x="100" y="25" width="100" height="30" as="geometry"/>
                </mxCell>
                <mxCell id="295" value="ssn" style="rounded=0;whiteSpace=wrap;html=1;fillColor=#6a00ff;fontColor=#ffffff;strokeColor=#3700CC;fontStyle=4" parent="293" vertex="1">
                    <mxGeometry y="25" width="100" height="30" as="geometry"/>
                </mxCell>
                <mxCell id="296" value="last-name" style="rounded=0;whiteSpace=wrap;html=1;fillColor=#6a00ff;fontColor=#ffffff;strokeColor=#3700CC;" parent="293" vertex="1">
                    <mxGeometry x="200" y="25" width="100" height="30" as="geometry"/>
                </mxCell>
                <mxCell id="297" value="gender" style="rounded=0;whiteSpace=wrap;html=1;fillColor=#6a00ff;fontColor=#ffffff;strokeColor=#3700CC;" parent="293" vertex="1">
                    <mxGeometry x="300" y="25" width="100" height="30" as="geometry"/>
                </mxCell>
                <mxCell id="298" value="birth-date" style="rounded=0;whiteSpace=wrap;html=1;fillColor=#6a00ff;fontColor=#ffffff;strokeColor=#3700CC;" parent="293" vertex="1">
                    <mxGeometry x="400" y="25" width="100" height="30" as="geometry"/>
                </mxCell>
                <mxCell id="321" value="department-number" style="rounded=0;whiteSpace=wrap;html=1;fillColor=#6a00ff;fontColor=#ffffff;strokeColor=#3700CC;" parent="293" vertex="1">
                    <mxGeometry x="500" y="25" width="130" height="30" as="geometry"/>
                </mxCell>
                <mxCell id="334" style="edgeStyle=orthogonalEdgeStyle;html=1;entryX=0.5;entryY=1;entryDx=0;entryDy=0;fillColor=#008a00;strokeColor=#005700;" parent="293" source="332" target="295" edge="1">
                    <mxGeometry relative="1" as="geometry">
                        <Array as="points">
                            <mxPoint x="680" y="80"/>
                            <mxPoint x="50" y="80"/>
                        </Array>
                    </mxGeometry>
                </mxCell>
                <mxCell id="332" value="supervisor-ssn" style="rounded=0;whiteSpace=wrap;html=1;fillColor=#6a00ff;fontColor=#ffffff;strokeColor=#3700CC;fontStyle=0" parent="293" vertex="1">
                    <mxGeometry x="630" y="25" width="100" height="30" as="geometry"/>
                </mxCell>
                <mxCell id="337" value="" style="endArrow=none;dashed=1;html=1;entryX=1;entryY=0.75;entryDx=0;entryDy=0;exitX=0;exitY=0.75;exitDx=0;exitDy=0;" edge="1" parent="293" source="332" target="332">
                    <mxGeometry width="50" height="50" relative="1" as="geometry">
                        <mxPoint x="600" y="50" as="sourcePoint"/>
                        <mxPoint x="730" y="50" as="targetPoint"/>
                    </mxGeometry>
                </mxCell>
                <mxCell id="343" style="edgeStyle=none;html=1;exitX=1;exitY=0.75;exitDx=0;exitDy=0;entryX=0;entryY=0.75;entryDx=0;entryDy=0;endArrow=none;endFill=0;dashed=1;" edge="1" parent="293" source="321" target="321">
                    <mxGeometry relative="1" as="geometry"/>
                </mxCell>
                <mxCell id="299" value="department" style="swimlane;whiteSpace=wrap;html=1;startSize=23;" parent="53" vertex="1">
                    <mxGeometry y="280" width="400" height="60" as="geometry"/>
                </mxCell>
                <mxCell id="300" value="name" style="rounded=0;whiteSpace=wrap;html=1;fillColor=#6a00ff;fontColor=#ffffff;strokeColor=#3700CC;" parent="299" vertex="1">
                    <mxGeometry x="100" y="25" width="100" height="30" as="geometry"/>
                </mxCell>
                <mxCell id="301" value="number" style="rounded=0;whiteSpace=wrap;html=1;fillColor=#6a00ff;fontColor=#ffffff;strokeColor=#3700CC;fontStyle=4" parent="299" vertex="1">
                    <mxGeometry y="25" width="100" height="30" as="geometry"/>
                </mxCell>
                <mxCell id="318" value="manager-ssn" style="rounded=0;whiteSpace=wrap;html=1;fillColor=#6a00ff;fontColor=#ffffff;strokeColor=#3700CC;" parent="299" vertex="1">
                    <mxGeometry x="200" y="25" width="100" height="30" as="geometry"/>
                </mxCell>
                <mxCell id="341" style="edgeStyle=none;html=1;exitX=0;exitY=0.75;exitDx=0;exitDy=0;entryX=0;entryY=0.75;entryDx=0;entryDy=0;endArrow=none;endFill=0;dashed=1;" edge="1" parent="299" source="319" target="318">
                    <mxGeometry relative="1" as="geometry"/>
                </mxCell>
                <mxCell id="319" value="hiring-date" style="rounded=0;whiteSpace=wrap;html=1;fillColor=#6a00ff;fontColor=#ffffff;strokeColor=#3700CC;" parent="299" vertex="1">
                    <mxGeometry x="300" y="25" width="100" height="30" as="geometry"/>
                </mxCell>
                <mxCell id="305" value="department-location" style="swimlane;whiteSpace=wrap;html=1;startSize=23;" parent="53" vertex="1">
                    <mxGeometry x="1190" y="290" width="200" height="60" as="geometry"/>
                </mxCell>
                <mxCell id="306" value="location" style="rounded=0;whiteSpace=wrap;html=1;fillColor=#6a00ff;fontColor=#ffffff;strokeColor=#3700CC;fontStyle=4" parent="305" vertex="1">
                    <mxGeometry x="100" y="25" width="100" height="30" as="geometry"/>
                </mxCell>
                <mxCell id="307" value="number" style="rounded=0;whiteSpace=wrap;html=1;fillColor=#6a00ff;fontColor=#ffffff;strokeColor=#3700CC;fontStyle=4" parent="305" vertex="1">
                    <mxGeometry y="25" width="100" height="30" as="geometry"/>
                </mxCell>
                <mxCell id="339" style="edgeStyle=none;html=1;exitX=1;exitY=0.75;exitDx=0;exitDy=0;entryX=0;entryY=0.75;entryDx=0;entryDy=0;endArrow=none;endFill=0;dashed=1;" edge="1" parent="305" source="307" target="307">
                    <mxGeometry relative="1" as="geometry"/>
                </mxCell>
                <mxCell id="308" style="edgeStyle=orthogonalEdgeStyle;html=1;entryX=0.5;entryY=1;entryDx=0;entryDy=0;" parent="53" source="307" target="301" edge="1">
                    <mxGeometry relative="1" as="geometry">
                        <Array as="points">
                            <mxPoint x="1240" y="360"/>
                            <mxPoint x="50" y="360"/>
                        </Array>
                    </mxGeometry>
                </mxCell>
                <mxCell id="310" value="dependent" style="swimlane;whiteSpace=wrap;html=1;startSize=23;" parent="53" vertex="1">
                    <mxGeometry x="998" y="150" width="402" height="60" as="geometry"/>
                </mxCell>
                <mxCell id="311" value="name" style="rounded=0;whiteSpace=wrap;html=1;fillColor=#6a00ff;fontColor=#ffffff;strokeColor=#3700CC;fontStyle=4" parent="310" vertex="1">
                    <mxGeometry y="25" width="100" height="30" as="geometry"/>
                </mxCell>
                <mxCell id="314" value="gender" style="rounded=0;whiteSpace=wrap;html=1;fillColor=#6a00ff;fontColor=#ffffff;strokeColor=#3700CC;" parent="310" vertex="1">
                    <mxGeometry x="100" y="25" width="100" height="30" as="geometry"/>
                </mxCell>
                <mxCell id="315" value="birth-date" style="rounded=0;whiteSpace=wrap;html=1;fillColor=#6a00ff;fontColor=#ffffff;strokeColor=#3700CC;" parent="310" vertex="1">
                    <mxGeometry x="200" y="25" width="100" height="30" as="geometry"/>
                </mxCell>
                <mxCell id="316" value="employee-ssn" style="rounded=0;whiteSpace=wrap;html=1;fillColor=#6a00ff;fontColor=#ffffff;strokeColor=#3700CC;fontStyle=4" parent="310" vertex="1">
                    <mxGeometry x="300" y="25" width="100" height="30" as="geometry"/>
                </mxCell>
                <mxCell id="338" value="" style="endArrow=none;dashed=1;html=1;entryX=1;entryY=0.75;entryDx=0;entryDy=0;exitX=0;exitY=0.75;exitDx=0;exitDy=0;" edge="1" parent="310" source="316" target="316">
                    <mxGeometry width="50" height="50" relative="1" as="geometry">
                        <mxPoint x="292" y="80" as="sourcePoint"/>
                        <mxPoint x="392" y="80" as="targetPoint"/>
                    </mxGeometry>
                </mxCell>
                <mxCell id="317" style="edgeStyle=orthogonalEdgeStyle;html=1;entryX=0.5;entryY=1;entryDx=0;entryDy=0;" parent="53" source="316" target="295" edge="1">
                    <mxGeometry relative="1" as="geometry">
                        <Array as="points">
                            <mxPoint x="1348" y="220"/>
                            <mxPoint x="50" y="220"/>
                        </Array>
                    </mxGeometry>
                </mxCell>
                <mxCell id="320" style="edgeStyle=orthogonalEdgeStyle;html=1;entryX=0.5;entryY=1;entryDx=0;entryDy=0;fillColor=#a20025;strokeColor=#6F0000;" parent="53" source="318" target="295" edge="1">
                    <mxGeometry relative="1" as="geometry">
                        <Array as="points">
                            <mxPoint x="250" y="220"/>
                            <mxPoint x="50" y="220"/>
                        </Array>
                    </mxGeometry>
                </mxCell>
                <mxCell id="324" style="edgeStyle=orthogonalEdgeStyle;html=1;entryX=0.5;entryY=1;entryDx=0;entryDy=0;exitX=0.5;exitY=1;exitDx=0;exitDy=0;" parent="53" source="321" target="301" edge="1">
                    <mxGeometry relative="1" as="geometry">
                        <mxPoint x="650" y="220" as="sourcePoint"/>
                        <Array as="points">
                            <mxPoint x="565" y="350"/>
                            <mxPoint x="50" y="350"/>
                        </Array>
                    </mxGeometry>
                </mxCell>
                <mxCell id="325" value="progject-employee" style="swimlane;whiteSpace=wrap;html=1;startSize=23;" parent="53" vertex="1">
                    <mxGeometry x="1096" y="20" width="304" height="60" as="geometry"/>
                </mxCell>
                <mxCell id="326" value="project-number" style="rounded=0;whiteSpace=wrap;html=1;fillColor=#6a00ff;fontColor=#ffffff;strokeColor=#3700CC;fontStyle=4" parent="325" vertex="1">
                    <mxGeometry y="25" width="100" height="30" as="geometry"/>
                </mxCell>
                <mxCell id="327" value="employee-ssn" style="rounded=0;whiteSpace=wrap;html=1;fillColor=#6a00ff;fontColor=#ffffff;strokeColor=#3700CC;fontStyle=4" parent="325" vertex="1">
                    <mxGeometry x="100" y="25" width="100" height="30" as="geometry"/>
                </mxCell>
                <mxCell id="340" style="edgeStyle=none;html=1;exitX=0;exitY=0.75;exitDx=0;exitDy=0;entryX=1;entryY=0.75;entryDx=0;entryDy=0;endArrow=none;endFill=0;dashed=1;" edge="1" parent="325" source="328" target="326">
                    <mxGeometry relative="1" as="geometry"/>
                </mxCell>
                <mxCell id="328" value="working-hours" style="rounded=0;whiteSpace=wrap;html=1;fillColor=#6a00ff;fontColor=#ffffff;strokeColor=#3700CC;" parent="325" vertex="1">
                    <mxGeometry x="200" y="25" width="100" height="30" as="geometry"/>
                </mxCell>
                <mxCell id="342" style="edgeStyle=none;html=1;exitX=1;exitY=0.75;exitDx=0;exitDy=0;entryX=0;entryY=0.75;entryDx=0;entryDy=0;endArrow=none;endFill=0;dashed=1;" edge="1" parent="325" source="326" target="326">
                    <mxGeometry relative="1" as="geometry"/>
                </mxCell>
                <mxCell id="330" style="edgeStyle=orthogonalEdgeStyle;html=1;entryX=0.5;entryY=1;entryDx=0;entryDy=0;" parent="53" source="326" target="286" edge="1">
                    <mxGeometry relative="1" as="geometry">
                        <Array as="points">
                            <mxPoint x="1146" y="100"/>
                            <mxPoint x="50" y="100"/>
                        </Array>
                    </mxGeometry>
                </mxCell>
                <mxCell id="331" style="edgeStyle=orthogonalEdgeStyle;html=1;fillColor=#1ba1e2;strokeColor=#006EAF;" parent="53" source="327" target="295" edge="1">
                    <mxGeometry relative="1" as="geometry">
                        <Array as="points">
                            <mxPoint x="1246" y="130"/>
                            <mxPoint x="870" y="130"/>
                            <mxPoint x="870" y="240"/>
                            <mxPoint x="50" y="240"/>
                        </Array>
                    </mxGeometry>
                </mxCell>
                <mxCell id="333" value="" style="edgeStyle=orthogonalEdgeStyle;html=1;entryX=0.5;entryY=1;entryDx=0;entryDy=0;" parent="53" source="323" target="301" edge="1">
                    <mxGeometry relative="1" as="geometry">
                        <mxPoint x="892" y="160" as="sourcePoint"/>
                        <mxPoint x="412" y="345" as="targetPoint"/>
                        <Array as="points">
                            <mxPoint x="465" y="120"/>
                            <mxPoint x="760" y="120"/>
                            <mxPoint x="760" y="380"/>
                            <mxPoint x="50" y="380"/>
                        </Array>
                    </mxGeometry>
                </mxCell>
                <mxCell id="322" style="edgeStyle=orthogonalEdgeStyle;html=1;entryX=0.5;entryY=1;entryDx=0;entryDy=0;" parent="53" source="321" target="301" edge="1">
                    <mxGeometry relative="1" as="geometry">
                        <mxPoint x="30" y="370" as="targetPoint"/>
                        <Array as="points">
                            <mxPoint x="565" y="370"/>
                            <mxPoint x="50" y="370"/>
                        </Array>
                    </mxGeometry>
                </mxCell>
                <mxCell id="54" value="constraints file" style="swimlane;fontStyle=0;childLayout=stackLayout;horizontal=1;startSize=30;horizontalStack=0;resizeParent=1;resizeParentMax=0;resizeLast=0;collapsible=1;marginBottom=0;whiteSpace=wrap;html=1;" parent="22" vertex="1">
                    <mxGeometry x="28" y="440" width="450" height="60" as="geometry"/>
                </mxCell>
                <mxCell id="309" value="&lt;b&gt;employee-name = first-name + last-name&lt;/b&gt;" style="text;strokeColor=none;fillColor=none;align=left;verticalAlign=middle;spacingLeft=4;spacingRight=4;overflow=hidden;points=[[0,0.5],[1,0.5]];portConstraint=eastwest;rotatable=0;whiteSpace=wrap;html=1;" parent="54" vertex="1">
                    <mxGeometry y="30" width="450" height="30" as="geometry"/>
                </mxCell>
            </root>
        </mxGraphModel>
    </diagram>
</mxfile>